<?xml version="1.0" encoding="UTF-8"?>
<!DOCTYPE svg PUBLIC "-//W3C//DTD SVG 1.1//EN" "http://www.w3.org/Graphics/SVG/1.1/DTD/svg11.dtd">
<!-- Creator: CorelDRAW X8 -->
<svg xmlns="http://www.w3.org/2000/svg" xml:space="preserve" width="120px" height="85px" version="1.1" style="shape-rendering:geometricPrecision; text-rendering:geometricPrecision; image-rendering:optimizeQuality; fill-rule:evenodd; clip-rule:evenodd"
viewBox="0 0 120 85"
 xmlns:xlink="http://www.w3.org/1999/xlink">
 <defs>
  <style type="text/css">
   <![CDATA[
    .fil0 {fill:black}
    .fil1 {fill:#34A4AB}
    .fil2 {fill:#D0EFF0}
   ]]>
  </style>
 </defs>
 <g id="Слой_x0020_1">
  <metadata id="CorelCorpID_0Corel-Layer"/>
  <g id="_2476352812336">
   <path class="fil0" d="M56 43c1,1 1,1 2,2 0,0 -1,1 -2,1 -1,1 -3,1 -4,1 0,0 0,1 -1,0 0,0 0,0 0,-1 1,-1 1,-1 2,-2 0,0 2,-1 3,-1zm39 2l0 0c0,1 -2,2 -4,2 0,0 -1,0 -1,0 -1,0 -1,0 -1,-1 1,0 2,-1 2,-1 1,-1 2,-1 3,-1 0,0 1,1 1,1zm2 0l0 0c0,0 0,-1 0,-1 2,0 2,3 3,4 0,0 1,2 1,2 0,0 0,0 0,0 -2,0 -2,-1 -2,-1 -1,-1 -1,-3 -2,-3 0,0 -2,2 -4,2 -2,1 -4,0 -4,0 -1,0 -1,-1 -1,-1 0,-1 0,-1 0,-2 1,0 3,-1 4,-2 0,0 1,0 2,-1 1,1 3,3 3,3zm-37 -1l0 0c0,0 1,0 1,0 0,0 1,0 1,1 0,0 1,1 1,2 1,0 1,0 1,1 0,0 0,0 0,0 -1,0 -1,0 -1,0 -2,-1 -2,-2 -3,-2 0,0 -2,1 -3,2 -1,0 -4,1 -5,1 0,0 -2,0 -2,-1 -1,-1 -1,-2 0,-4 2,-2 5,-2 5,-2 3,0 4,2 5,2zm-18 0l0 0c0,0 1,-2 1,-2l1 0c1,0 3,1 4,2 0,0 -3,0 -4,0 -1,1 -1,2 -1,3 0,1 0,2 0,3 0,0 0,0 0,0 -2,0 -2,-3 -3,-4 0,-2 0,-4 0,-4 0,0 0,0 0,0 1,0 1,2 2,2zm66 1l0 0c1,-1 1,-1 2,-1 1,0 1,0 1,1 0,0 -1,1 -1,1 0,1 0,1 1,1 1,1 3,2 4,2 2,1 3,1 5,2 0,0 0,0 0,0 -1,1 -3,0 -4,0 -3,-1 -5,-2 -5,-2 -1,0 -2,-1 -2,-1 -1,0 -2,1 -2,1 -1,1 -1,2 -2,3 0,0 0,1 -1,1 0,0 0,-1 0,-1 0,-1 1,-2 1,-3 1,-1 2,-2 2,-2 -2,-2 -4,-4 -4,-5 0,-1 0,-1 1,-1 1,2 2,3 4,4zm-39 -4l0 0c1,1 0,2 0,3 0,0 0,2 0,2 0,0 0,1 1,1 0,0 4,-3 4,-4 0,0 1,1 1,1 1,0 0,1 1,1 0,1 1,2 1,2 1,0 1,0 1,0 2,-1 4,-2 5,-2 2,0 2,2 2,2 0,1 1,1 2,2 0,0 -1,1 -1,1 -1,0 -2,-1 -2,-1 -1,-1 0,-2 -1,-3 -1,1 -2,1 -3,2 -1,0 -2,0 -3,0 -2,1 -2,-2 -3,-2 -1,0 -2,1 -4,3 0,0 -1,0 -1,0 -2,0 -2,-2 -2,-2 0,-1 0,-5 2,-6 0,0 0,0 0,0zm-34 -1l0 0c0,1 0,2 0,2 0,1 0,5 1,6 0,2 0,2 0,3 0,0 0,0 0,0 -1,0 -1,0 -1,0 -1,-1 -1,-5 -1,-7l0 -3c0,-1 0,-1 1,-1 0,0 0,0 0,0zm-19 -7l0 0c1,0 3,0 3,1 0,0 -3,1 -5,2 -1,1 -4,2 -4,2 0,0 -1,-1 -1,-1 0,0 0,-3 0,-3 0,0 -1,-1 0,-2 0,0 3,0 7,1zm20 3l0 0c0,0 -1,0 -1,0 -1,0 -5,-3 -5,-3 0,-1 -1,-1 -1,-1 0,0 -1,-1 0,-1 0,0 0,-1 1,-1l6 6zm-27 -6l0 0c1,0 7,1 10,2 1,0 2,1 2,2 0,0 0,1 -1,1 -1,1 -7,4 -10,4 0,0 0,0 0,1 0,0 2,0 3,0 0,0 12,1 14,2 2,0 2,1 2,2 0,1 -2,3 -4,4 -3,1 -8,3 -14,4 -1,1 -2,1 -3,1 -1,1 -1,1 -1,1 -1,0 -2,0 -2,0 0,-1 3,-2 4,-3 2,0 12,-3 16,-5 1,-1 2,-1 2,-2 0,-1 -1,-1 -1,-1 -3,-1 -15,-1 -15,-1 -1,0 -1,0 -1,0 0,0 0,3 1,4 0,0 0,1 0,1 0,1 0,1 0,1 -2,0 -3,-5 -3,-6 0,-1 -2,-1 -2,-1 0,-2 2,-3 2,-3 0,0 -1,-5 -1,-6 0,0 -1,0 -2,0 0,0 -1,0 -1,1 0,0 1,0 0,1 0,0 -1,-1 -1,-1 -1,-1 -3,-2 -3,-3 0,0 1,0 1,0 0,0 2,0 4,0 2,0 0,-1 2,-1 1,0 1,1 2,1z"/>
   <path class="fil1" d="M97 38l-38 -37c-1,-1 -3,-1 -4,0l-8 7c-1,1 -1,3 -1,4l3 27 -1 -24c0,-1 1,-3 1,-4l7 -5c1,-1 2,-1 3,0l38 32z"/>
   <path class="fil1" d="M65 39l-1 -11c0,-2 1,-2 2,-1l11 13 -10 -9c-1,0 -1,-1 -1,0l-1 8z"/>
   <path class="fil1" d="M46 38l0 -4c0,-2 -1,-3 -2,-3l-8 1 6 1c1,0 2,1 2,2l2 3z"/>
   <path class="fil1" d="M59 51l4 0c2,1 3,2 3,3l1 14c1,2 0,2 -1,1l-15 -14c0,0 -1,-2 -1,-3 0,1 1,3 2,3l12 9c1,1 2,1 1,0l0 -10c0,-1 -1,-2 -2,-2l-4 -1z"/>
   <path class="fil1" d="M46 54l20 18c1,1 1,3 0,4l-8 7c-1,1 -3,1 -4,0l-29 -29 30 25c0,1 2,1 3,0l5 -5c1,-1 1,-2 0,-3l-17 -17z"/>
   <path class="fil2" d="M63 74l0 0c1,-1 1,-2 0,-3l0 0c-6,9 -13,4 -14,3l6 5c0,1 2,1 3,0l5 -5z"/>
   <path class="fil2" d="M48 20c1,-2 2,-7 5,-9 7,-3 8,-3 16,3l-10 -8c-1,-1 -2,-1 -3,0l-7 5c0,1 -1,3 -1,4l0 5z"/>
   <path class="fil2" d="M61 52c1,0 8,7 0,10l3 2c1,1 2,1 1,0l0 -10c0,-1 -1,-2 -2,-2l-2 0z"/>
   <path class="fil2" d="M42 33l-4 0c0,0 1,1 3,3 1,0 3,0 5,1l-2 -2c0,-1 -1,-2 -2,-2z"/>
  </g>
 </g>
</svg>
